<svg id="ховер" xmlns="http://www.w3.org/2000/svg" width="37" height="37" viewBox="0 0 37 37">
  <metadata><?xpacket begin="﻿" id="W5M0MpCehiHzreSzNTczkc9d"?>
<x:xmpmeta xmlns:x="adobe:ns:meta/" x:xmptk="Adobe XMP Core 5.6-c142 79.160924, 2017/07/13-01:06:39        ">
   <rdf:RDF xmlns:rdf="http://www.w3.org/1999/02/22-rdf-syntax-ns#">
      <rdf:Description rdf:about=""/>
   </rdf:RDF>
</x:xmpmeta>
                                                                                                    
                                                                                                    
                                                                                                    
                                                                                                    
                                                                                                    
                                                                                                    
                                                                                                    
                                                                                                    
                                                                                                    
                                                                                                    
                                                                                                    
                                                                                                    
                                                                                                    
                                                                                                    
                                                                                                    
                                                                                                    
                                                                                                    
                                                                                                    
                                                                                                    
                                                                                                    
                           
<?xpacket end="w"?></metadata>
<defs>
    <style>
      .cls-1 {
        fill: #323338;
        stroke: #f4d219;
        stroke-width: 2px;
      }

      .cls-2 {
        fill: #f4d219;
        fill-rule: evenodd;
      }
    </style>
  </defs>
  <rect id="фон" class="cls-1" x="1" y="1" width="35" height="35" rx="17.5" ry="17.5"/>
  <path id="fb" class="cls-2" d="M996.163,2600.02l-0.31,2.98h-2.567v9.01h-3.437V2603h-1.7v-2.98h1.7v-2.03a5.381,5.381,0,0,1,.259-1.75,4.06,4.06,0,0,1,.694-1.28,3.847,3.847,0,0,1,2.981-.97h2.38v3.03h-1.49a3.458,3.458,0,0,0-.445.02,2.161,2.161,0,0,0-.363.05,0.484,0.484,0,0,0-.227.14l-0.145.2a1.268,1.268,0,0,0-.125.35,2.894,2.894,0,0,0-.041.53v1.71h2.836Z" transform="translate(-974 -2584)"/>
</svg>
