<svg xmlns="http://www.w3.org/2000/svg" xmlns:xlink="http://www.w3.org/1999/xlink" width="108" height="109" viewBox="0 0 108 109">
  <metadata><?xpacket begin="﻿" id="W5M0MpCehiHzreSzNTczkc9d"?>
<x:xmpmeta xmlns:x="adobe:ns:meta/" x:xmptk="Adobe XMP Core 5.6-c142 79.160924, 2017/07/13-01:06:39        ">
   <rdf:RDF xmlns:rdf="http://www.w3.org/1999/02/22-rdf-syntax-ns#">
      <rdf:Description rdf:about=""/>
   </rdf:RDF>
</x:xmpmeta>
                                                                                                    
                                                                                                    
                                                                                                    
                                                                                                    
                                                                                                    
                                                                                                    
                                                                                                    
                                                                                                    
                                                                                                    
                                                                                                    
                                                                                                    
                                                                                                    
                                                                                                    
                                                                                                    
                                                                                                    
                                                                                                    
                                                                                                    
                                                                                                    
                                                                                                    
                                                                                                    
                           
<?xpacket end="w"?></metadata>
<defs>
    <style>
      .cls-1 {
        fill-rule: evenodd;
        filter: url(#filter);
      }
    </style>
    <filter id="filter" x="1156" y="848" width="108" height="109" filterUnits="userSpaceOnUse">
      <feOffset result="offset" dy="1" in="SourceAlpha"/>
      <feGaussianBlur result="blur" stdDeviation="4.472"/>
      <feFlood result="flood" flood-color="#f4a919"/>
      <feComposite result="composite" operator="in" in2="blur"/>
      <feBlend result="blend" in="SourceGraphic"/>
    </filter>
  </defs>
  <path id="иконка" class="cls-1" d="M1188.94,872.469h-6.47a1.084,1.084,0,0,0-1.08,1.093v6.563a1.085,1.085,0,0,0,1.08,1.094h6.47a1.091,1.091,0,0,0,1.08-1.094v-6.563A1.091,1.091,0,0,0,1188.94,872.469Zm-1.08,6.562h-4.31v-4.375h4.31v4.375Zm4.31-5.469h2.16v2.188h-2.16v-2.188Zm4.31,0h2.16v2.188h-2.16v-2.188Zm-4.31,4.375h12.94v2.188h-12.94v-2.188Zm-4.31,48.125h6.47v2.188h-6.47v-2.188Zm-6.47-4.375h12.94v2.188h-12.94v-2.188Zm52.83-40.468a1.107,1.107,0,0,0-.32-0.774l-12.93-13.125a1.1,1.1,0,0,0-.77-0.32h-40.97a3.258,3.258,0,0,0-3.23,3.281v63.438a3.258,3.258,0,0,0,3.23,3.281h49.6v-2.188h-49.6a1.082,1.082,0,0,1-1.07-1.093V870.281a1.083,1.083,0,0,1,1.07-1.094h39.9v9.844a3.252,3.252,0,0,0,3.23,3.281h9.7v3.282h2.16v-4.375h0Zm-11.86-1.094a1.085,1.085,0,0,1-1.08-1.094v-8.3l9.26,9.391h-8.18Zm-40.97,12.031h47.44v2.187h-47.44v-2.187Zm0,6.562h47.44v2.188h-47.44v-2.188Zm0,6.563h47.44v2.187h-47.44v-2.187Zm12.94,6.562h34.5v2.188h-34.5v-2.188Zm33.42,6.563h-25.87a1.085,1.085,0,0,0-1.08,1.094v10.937a1.084,1.084,0,0,0,1.08,1.094h25.87a1.084,1.084,0,0,0,1.08-1.094V919.5A1.085,1.085,0,0,0,1227.75,918.406Zm-1.08,10.938h-23.72v-8.75h23.72v8.75Zm-4.12-5.059a2.981,2.981,0,0,0-1.08-1.1,2.94,2.94,0,0,0-4.05,1.1,1.179,1.179,0,0,1-.89.684,1.149,1.149,0,0,1-.88-0.683,3,3,0,0,0-1.09-1.1,2.934,2.934,0,0,0-4.04,1.1,0.915,0.915,0,0,1-1.77,0,3.141,3.141,0,0,0-2.56-1.5v2.188a1.147,1.147,0,0,1,.88.682,2.942,2.942,0,0,0,5.13,0,1.152,1.152,0,0,1,.88-0.682,1.136,1.136,0,0,1,.88.683,3,3,0,0,0,1.09,1.1,2.942,2.942,0,0,0,4.05-1.1,0.915,0.915,0,0,1,1.77,0,3.169,3.169,0,0,0,2.57,1.5v-2.187A1.148,1.148,0,0,1,1222.55,924.285Zm20.29-21.191v27.343h-2.15V892.156a1.046,1.046,0,0,0-.12-0.489l-3.23-6.562a1.17,1.17,0,0,0-.39-0.395,1.11,1.11,0,0,0-1.54.395l-3.24,6.562a1.18,1.18,0,0,0-.11.489v43.75a1.091,1.091,0,0,0,1.08,1.094h6.47a1.085,1.085,0,0,0,1.08-1.094v-3.281h2.24a2.126,2.126,0,0,0,2.07-2.188V903.094h-2.16Zm-6.46-15.055,1.49,3.023h-2.98Zm2.15,46.773h-4.31v-7.656h4.31v7.656Zm0-9.843h-4.31V893.25h4.31v31.719Z" transform="translate(-1156 -848)"/>
</svg>
