<svg xmlns="http://www.w3.org/2000/svg" xmlns:xlink="http://www.w3.org/1999/xlink" width="110" height="110" viewBox="0 0 110 110">
  <metadata><?xpacket begin="﻿" id="W5M0MpCehiHzreSzNTczkc9d"?>
<x:xmpmeta xmlns:x="adobe:ns:meta/" x:xmptk="Adobe XMP Core 5.6-c142 79.160924, 2017/07/13-01:06:39        ">
   <rdf:RDF xmlns:rdf="http://www.w3.org/1999/02/22-rdf-syntax-ns#">
      <rdf:Description rdf:about=""/>
   </rdf:RDF>
</x:xmpmeta>
                                                                                                    
                                                                                                    
                                                                                                    
                                                                                                    
                                                                                                    
                                                                                                    
                                                                                                    
                                                                                                    
                                                                                                    
                                                                                                    
                                                                                                    
                                                                                                    
                                                                                                    
                                                                                                    
                                                                                                    
                                                                                                    
                                                                                                    
                                                                                                    
                                                                                                    
                                                                                                    
                           
<?xpacket end="w"?></metadata>
<defs>
    <style>
      .cls-1 {
        fill-rule: evenodd;
        filter: url(#filter);
      }
    </style>
    <filter id="filter" x="820" y="848" width="110" height="110" filterUnits="userSpaceOnUse">
      <feOffset result="offset" dy="1" in="SourceAlpha"/>
      <feGaussianBlur result="blur" stdDeviation="4.472"/>
      <feFlood result="flood" flood-color="#f4a919"/>
      <feComposite result="composite" operator="in" in2="blur"/>
      <feBlend result="blend" in="SourceGraphic"/>
    </filter>
  </defs>
  <path id="иконка" class="cls-1" d="M855.319,876.393h-2.333a1.167,1.167,0,1,0,0,2.333h2.333a1.167,1.167,0,1,0,0-2.333h0Zm-9.333-9.333h-2.334a1.167,1.167,0,0,0,0,2.333h2.334a1.167,1.167,0,0,0,0-2.333h0Zm0,0h0Zm11.667,4.667h-9.334a1.166,1.166,0,1,0,0,2.332h9.334a1.166,1.166,0,0,0,0-2.332h0Zm0,0h0Zm35,45.5a1.167,1.167,0,0,0-1.167,1.167v2.333a1.167,1.167,0,1,0,2.333,0v-2.333a1.167,1.167,0,0,0-1.166-1.167h0Zm0,0h0Zm-4.667,2.333a1.167,1.167,0,0,0-1.167,1.167v2.333a1.167,1.167,0,0,0,2.334,0v-2.333a1.168,1.168,0,0,0-1.167-1.167h0Zm21.584-16.42-9.917-5.746,9.917-5.743a1.165,1.165,0,0,0,0-2.02l-16.339-9.457a1.166,1.166,0,1,0-1.168,2.018l14.59,8.449-9.333,5.406-10.633-6.157q0.328-.588.6-1.205c0.37-.839.8-1.86,1.132-2.78a11.585,11.585,0,0,0,.528-2.071l0.27-1.666a13.232,13.232,0,0,0,.031-1.575,14,14,0,0,0-27.989.518c0,0.348.014,0.709,0.042,1.057l0.4,2.475a19.124,19.124,0,0,0,2.129,5.125l-10.844,6.279-9.334-5.406,14.8-8.57a1.167,1.167,0,1,0-1.08-2.069l-0.086.05-16.55,9.579a1.167,1.167,0,0,0-.27,1.806,1.135,1.135,0,0,0,.277.219l9.907,5.738-9.914,5.744a1.167,1.167,0,0,0-.425,1.6,1.15,1.15,0,0,0,.425.423l11.083,6.418v11.486a1.162,1.162,0,0,0,.583,1.008L874.57,936.9a0.855,0.855,0,0,0,.086.037l0.1,0.04a1.042,1.042,0,0,0,.8,0l0.1-.04c0.033-.017.06-0.02,0.088-0.037l22.166-12.835a1.165,1.165,0,0,0,.582-1.008V911.572l11.083-6.416A1.168,1.168,0,0,0,909.57,903.138Zm-45.976-22.029a11.667,11.667,0,1,1,23.334,0,14.915,14.915,0,0,1-2.315,7.579c-0.4.675-.841,1.324-1.3,1.947a37.226,37.226,0,0,1-8.052,7.727,37.138,37.138,0,0,1-8.116-7.815,23.228,23.228,0,0,1-1.29-1.954A14.817,14.817,0,0,1,863.594,881.109Zm-19.941,23.037,9.334-5.407,19.833,11.486-9.333,5.407Zm30.332,29.722-19.832-11.482v-9.463l8.75,5.066a1.169,1.169,0,0,0,1.167,0l9.915-5.74v21.619Zm1.168-24.99L855.32,897.392l9.785-5.663a38.5,38.5,0,0,0,9.529,9.03,1.17,1.17,0,0,0,1.254,0,91.313,91.313,0,0,0,9.129-8.482l0.006,0c0.124-.144.244-0.292,0.361-0.439l9.608,5.559Zm21,13.508L876.32,933.868V912.249l9.917,5.74a1.167,1.167,0,0,0,1.166,0l8.75-5.066v9.463Zm-9.333-6.754-9.333-5.407,19.831-11.486,9.335,5.407Zm-4.487-38.608a1.167,1.167,0,0,0-2.018,1.168,5.823,5.823,0,1,1-3.11-2.587,1.167,1.167,0,0,0,.779-2.2,8.17,8.17,0,1,0,4.349,3.616h0Zm0,0h0Z" transform="translate(-820 -848)"/>
</svg>
