<svg xmlns="http://www.w3.org/2000/svg" xmlns:xlink="http://www.w3.org/1999/xlink" width="109" height="109" viewBox="0 0 109 109">
  <metadata><?xpacket begin="﻿" id="W5M0MpCehiHzreSzNTczkc9d"?>
<x:xmpmeta xmlns:x="adobe:ns:meta/" x:xmptk="Adobe XMP Core 5.6-c142 79.160924, 2017/07/13-01:06:39        ">
   <rdf:RDF xmlns:rdf="http://www.w3.org/1999/02/22-rdf-syntax-ns#">
      <rdf:Description rdf:about=""/>
   </rdf:RDF>
</x:xmpmeta>
                                                                                                    
                                                                                                    
                                                                                                    
                                                                                                    
                                                                                                    
                                                                                                    
                                                                                                    
                                                                                                    
                                                                                                    
                                                                                                    
                                                                                                    
                                                                                                    
                                                                                                    
                                                                                                    
                                                                                                    
                                                                                                    
                                                                                                    
                                                                                                    
                                                                                                    
                                                                                                    
                           
<?xpacket end="w"?></metadata>
<defs>
    <style>
      .cls-1 {
        fill-rule: evenodd;
        filter: url(#filter);
      }
    </style>
    <filter id="filter" x="455" y="848" width="109" height="109" filterUnits="userSpaceOnUse">
      <feOffset result="offset" dy="1" in="SourceAlpha"/>
      <feGaussianBlur result="blur" stdDeviation="4.472"/>
      <feFlood result="flood" flood-color="#f4a919"/>
      <feComposite result="composite" operator="in" in2="blur"/>
      <feBlend result="blend" in="SourceGraphic"/>
    </filter>
  </defs>
  <path id="иконка" class="cls-1" d="M542.667,867v3.5H510a31.279,31.279,0,0,0-14.19,3.391l-7.977-2.395a6.693,6.693,0,0,0-8.337,8.337l2.4,7.98A31.3,31.3,0,0,0,478.5,902c0,0.35.015,0.692,0.027,1.036a0.982,0.982,0,0,0-.027.131v31.5H475V937h23.333v-2.333h-3.5V929.6a31.4,31.4,0,0,0,29.357.511l7.977,2.4a6.693,6.693,0,0,0,8.337-8.337l-2.4-7.98A31.283,31.283,0,0,0,541.5,902a31.611,31.611,0,0,0-2.734-12.833h3.9v3.5H545V867h-2.333Zm-60.934,12.159a4.354,4.354,0,0,1,5.425-5.426l5.84,1.75c-0.178.116-.35,0.233-0.523,0.35l-0.163.111a31.381,31.381,0,0,0-8.363,8.362l-0.11.164c-0.117.175-.241,0.35-0.35,0.522ZM492.5,934.667H480.833v-2.334H492.5v2.334ZM480.833,930V913.88q0.435,1.062.943,2.086l0.05,0.1q0.466,0.933,1,1.839c0.041,0.068.078,0.137,0.116,0.206q0.53,0.885,1.115,1.733c0.1,0.14.2,0.277,0.3,0.417q0.466,0.659.972,1.291c0.117,0.142.22,0.285,0.335,0.425,0.391,0.476.8,0.934,1.217,1.39,0.176,0.191.358,0.378,0.54,0.566q0.486,0.5,1,.98c0.217,0.205.435,0.408,0.659,0.606q0.583,0.522,1.194,1.012c0.2,0.163.407,0.324,0.614,0.483,0.5,0.38,1,.751,1.517,1.1,0.034,0.024.064,0.049,0.1,0.072L492.5,930H480.833Zm57.434-5.159a4.356,4.356,0,0,1-5.425,5.426l-5.84-1.75c0.178-.117.35-0.233,0.522-0.35l0.164-.111a31.377,31.377,0,0,0,8.362-8.362l0.111-.164c0.117-.175.241-0.35,0.35-0.522Zm0.9-22.841a28.979,28.979,0,0,1-3.44,13.722c-0.276.519-.569,1.026-0.875,1.524-0.132.215-.27,0.425-0.407,0.636-0.2.3-.4,0.6-0.609,0.9q-0.432.613-.9,1.2c-0.167.213-.333,0.427-0.5,0.635q-0.368.444-.754,0.871c-0.117.127-.233,0.252-0.35,0.377q-0.707.759-1.466,1.466l-0.377.35q-0.429.386-.871,0.754c-0.208.172-.422,0.338-0.635,0.5q-0.59.467-1.2,0.9c-0.294.208-.592,0.412-0.9,0.609-0.211.137-.421,0.275-0.636,0.407-0.5.306-1,.6-1.524,0.875a29.081,29.081,0,0,1-29.731-1.365c-0.249-.163-0.492-0.332-0.735-0.5-0.2-.143-0.412-0.285-0.613-0.435-0.242-.181-0.477-0.369-0.712-0.554q-0.543-.431-1.063-0.883c-0.185-.161-0.372-0.321-0.553-0.487-0.214-.2-0.421-0.4-0.629-0.6-0.171-.167-0.343-0.335-0.51-0.507q-0.3-.3-0.583-0.611c-0.18-.2-0.35-0.393-0.53-0.593s-0.335-.379-0.5-0.574c-0.321-.386-0.633-0.778-0.933-1.18-0.066-.088-0.126-0.179-0.19-0.266-0.258-.35-0.511-0.714-0.754-1.079-0.079-.117-0.154-0.242-0.233-0.362-0.234-.357-0.452-0.718-0.664-1.084-0.06-.1-0.117-0.2-0.175-0.3q-0.375-.662-0.717-1.341l-0.033-.071a29.092,29.092,0,0,1-3-11.808c-0.015-.374-0.029-0.746-0.029-1.122a28.967,28.967,0,0,1,3.44-13.722c0.276-.52.569-1.026,0.875-1.524,0.132-.215.27-0.425,0.407-0.636,0.2-.3.4-0.6,0.609-0.9q0.431-.615.9-1.2c0.167-.213.332-0.427,0.5-0.636q0.368-.443.754-0.87c0.116-.127.233-0.252,0.35-0.377q0.707-.759,1.466-1.466c0.125-.117.25-0.234,0.377-0.35q0.429-.386.87-0.754c0.209-.173.423-0.338,0.636-0.5q0.589-.467,1.2-0.9c0.294-.208.592-0.412,0.895-0.609,0.211-.137.421-0.276,0.636-0.407,0.5-.306,1-0.6,1.524-0.876A28.978,28.978,0,0,1,510,872.833h23.333v14h-10.5v0.073a19.885,19.885,0,1,0,2.261,2.261h11.084A28.819,28.819,0,0,1,539.167,902ZM527.5,902A17.5,17.5,0,1,1,510,884.5,17.5,17.5,0,0,1,527.5,902Zm15.167-15.167h-7v-14h7v14ZM525.1,900.666c-0.014-.164-0.034-0.327-0.053-0.491-0.033-.267-0.075-0.533-0.116-0.8-0.056-.319-0.124-0.634-0.2-0.946-0.053-.223-0.105-0.446-0.169-0.667l-0.012-.035c-0.123-.42-0.269-0.831-0.428-1.236-0.022-.056-0.039-0.116-0.063-0.171-0.171-.423-0.364-0.833-0.571-1.237-0.017-.033-0.031-0.068-0.048-0.1-0.22-.418-0.458-0.817-0.713-1.216-0.013-.019-0.023-0.038-0.036-0.058-0.253-.385-0.524-0.756-0.81-1.117-0.029-.031-0.049-0.063-0.072-0.091-0.264-.326-0.544-0.638-0.832-0.941-0.057-.06-0.109-0.124-0.167-0.182-0.245-.25-0.5-0.483-0.768-0.715-0.116-.1-0.221-0.21-0.339-0.31-0.205-.171-0.424-0.325-0.637-0.486-0.187-.14-0.366-0.287-0.559-0.418-0.169-.116-0.35-0.214-0.521-0.322-0.234-.143-0.453-0.3-0.69-0.424a0.544,0.544,0,0,0-.054-0.027c-0.093-.052-0.193-0.092-0.288-0.141-0.333-.173-0.669-0.342-1.015-0.489-0.146-.063-0.3-0.117-0.449-0.171-0.3-.116-0.6-0.233-0.915-0.334-0.176-.056-0.358-0.1-0.537-0.146-0.291-.081-0.584-0.164-0.878-0.227-0.2-.043-0.406-0.07-0.609-0.1-0.28-.046-0.559-0.1-0.841-0.128-0.233-.027-0.475-0.036-0.713-0.052s-0.5-.034-0.75-0.038c-0.082,0-.162-0.013-0.245-0.013-0.222,0-.439.024-0.658,0.034-0.175.008-.35,0.012-0.526,0.026-0.387.03-.768,0.079-1.146,0.139-0.085.013-.17,0.023-0.256,0.038q-0.662.117-1.3,0.287c-0.028.007-.056,0.011-0.083,0.018l-0.041.013q-0.683.189-1.339,0.438l-0.117.04q-0.656.255-1.283,0.568c-0.036.019-.072,0.034-0.107,0.053-0.41.207-.807,0.435-1.193,0.677l-0.132.081c-0.364.233-.715,0.485-1.057,0.749-0.063.049-.129,0.093-0.191,0.143-0.306.243-.6,0.5-0.882,0.767-0.091.084-.184,0.162-0.272,0.247-0.24.234-.466,0.483-0.692,0.733-0.116.131-.233,0.254-0.35,0.387-0.179.215-.35,0.442-0.512,0.666-0.135.18-.277,0.35-0.4,0.542s-0.263.423-.394,0.637-0.252.385-.363,0.583c-0.008.015-.014,0.032-0.022,0.046a15.2,15.2,0,0,0-.726,1.545c-0.059.146-.107,0.293-0.162,0.44-0.15.407-.286,0.817-0.4,1.244-0.046.167-.089,0.332-0.13,0.5-0.1.425-.181,0.856-0.246,1.292-0.023.155-.052,0.308-0.07,0.467a15.321,15.321,0,0,0-.111,1.766c0,0.444.027,0.889,0.068,1.333,0.014,0.165.034,0.328,0.052,0.492,0.034,0.267.076,0.533,0.117,0.8,0.056,0.319.124,0.634,0.2,0.946,0.053,0.223.105,0.445,0.169,0.667l0.011,0.035c0.125,0.421.271,0.833,0.43,1.238,0.021,0.056.038,0.117,0.06,0.168,0.173,0.425.367,0.839,0.576,1.244,0.016,0.03.029,0.061,0.044,0.092q0.333,0.631.72,1.226c0.01,0.016.018,0.033,0.029,0.048,0.256,0.389.53,0.765,0.817,1.13,0.019,0.025.037,0.05,0.057,0.075,0.266,0.331.55,0.647,0.844,0.955,0.052,0.055.1,0.117,0.153,0.168,0.25,0.256.516,0.494,0.784,0.731,0.109,0.1.211,0.2,0.323,0.294,0.212,0.177.438,0.337,0.66,0.5,0.178,0.134.35,0.276,0.536,0.4s0.361,0.222.54,0.334c0.224,0.139.443,0.287,0.674,0.414,0.015,0.008.031,0.014,0.045,0.022a15.111,15.111,0,0,0,1.546.726c0.146,0.059.293,0.107,0.44,0.162,0.407,0.15.816,0.286,1.243,0.4,0.167,0.046.333,0.089,0.5,0.13,0.425,0.1.855,0.181,1.291,0.246,0.156,0.023.308,0.053,0.467,0.07a15.173,15.173,0,0,0,1.77.116c0.444,0,.889-0.027,1.333-0.068,0.165-.014.328-0.034,0.492-0.053,0.267-.033.533-0.075,0.8-0.116,0.319-.056.634-0.124,0.946-0.2,0.221-.053.444-0.1,0.665-0.168l0.035-.011c0.42-.124.83-0.27,1.235-0.429,0.056-.022.117-0.039,0.172-0.063,0.421-.17.832-0.362,1.233-0.569l0.1-.05q0.622-.329,1.208-0.709c0.023-.014.045-0.026,0.067-0.041,0.381-.25.748-0.518,1.105-0.8,0.032-.026.069-0.05,0.1-0.077,0.321-.257.626-0.533,0.923-0.816,0.067-.062.137-0.117,0.2-0.183,0.241-.234.467-0.492,0.693-0.745,0.11-.116.225-0.233,0.33-0.363,0.162-.194.309-0.4,0.467-0.605s0.3-.387.442-0.592c0.1-.149.189-0.308,0.286-0.466,0.155-.248.319-0.49,0.466-0.748,0.009-.015.014-0.032,0.023-0.047a15.048,15.048,0,0,0,.724-1.543c0.06-.146.107-0.294,0.162-0.441a12.527,12.527,0,0,0,.4-1.244c0.045-.167.088-0.331,0.129-0.5,0.1-.425.181-0.857,0.247-1.294,0.023-.154.052-0.306,0.069-0.461a15.092,15.092,0,0,0,.107-1.765C525.167,901.555,525.14,901.111,525.1,900.666Zm-8.051-4.12c0.052-.067.1-0.139,0.144-0.208,0.082-.117.167-0.224,0.234-0.343,0.05-.08.091-0.167,0.136-0.251,0.062-.116.127-0.22,0.181-0.336,0.042-.09.075-0.183,0.111-0.274,0.048-.117.1-0.227,0.138-0.35,0.031-.092.052-0.189,0.079-0.283,0.034-.117.071-0.234,0.1-0.36,0.021-.1.031-0.195,0.047-0.291,0.021-.123.044-0.244,0.056-0.368,0.009-.1.009-0.2,0.014-0.3,0.005-.123.015-0.246,0.012-0.371,0-.1-0.014-0.2-0.021-0.3s-0.008-.212-0.022-0.319c0.035,0.03.067,0.062,0.1,0.093a12.929,12.929,0,0,1,1.037,1c0.066,0.071.13,0.142,0.195,0.215a13.007,13.007,0,0,1,1.845,2.7c0.026,0.051.049,0.1,0.075,0.155a12.508,12.508,0,0,1,.595,1.419,0.467,0.467,0,0,1,.036.094l0,0.015-1.17,1.547a3.516,3.516,0,0,1-2.8,1.4H513.3c-0.02-.056-0.046-0.108-0.068-0.163l-0.023-.056c-0.018-.041-0.032-0.083-0.052-0.124l3.441-3.44A6.109,6.109,0,0,0,517.048,896.546Zm-7.309-7.367c0.333-.007.666,0,1,0.025,0.167,0.009.336,0.009,0.5,0.026a12.027,12.027,0,0,1,1.389.21c0.124,0.025.243,0.064,0.365,0.093,0.35,0.085.7,0.178,1.041,0.293,0.158,0.052.31,0.116,0.467,0.17,0.3,0.114.6,0.238,0.895,0.375,0.091,0.042.18,0.086,0.271,0.13l0.276,1.93a3.514,3.514,0,0,1-.99,2.969l-3.44,3.441c-0.041-.02-0.083-0.034-0.124-0.052l-0.056-.023c-0.055-.022-0.107-0.048-0.163-0.068v-5.483a5.844,5.844,0,0,0-.1-1.014c-0.016-.093-0.037-0.185-0.058-0.278a5.673,5.673,0,0,0-.222-0.747c-0.028-.076-0.05-0.152-0.081-0.226a5.882,5.882,0,0,0-.451-0.866c-0.037-.058-0.082-0.11-0.117-0.167a5.689,5.689,0,0,0-.494-0.622c-0.031-.034-0.054-0.075-0.086-0.109C509.617,889.186,509.678,889.181,509.739,889.179Zm-9.463,4.47v0a12.912,12.912,0,0,1,1.091-1.116c0.06-.055.116-0.117,0.18-0.165a12.979,12.979,0,0,1,2.932-1.935l0.055-.026a12.715,12.715,0,0,1,1.688-.658l0.677,0.338a3.48,3.48,0,0,1,1.934,3.128V898.7c-0.056.019-.108,0.045-0.163,0.067l-0.056.024c-0.041.017-.083,0.031-0.124,0.051l-3.44-3.441a5.932,5.932,0,0,0-.817-0.665c-0.045-.031-0.09-0.064-0.136-0.094a5.852,5.852,0,0,0-.886-0.467c-0.052-.022-0.105-0.042-0.159-0.063a5.852,5.852,0,0,0-.985-0.3l-0.055-.009a5.955,5.955,0,0,0-1.014-.1c-0.028,0-.056-0.009-0.085-0.009h-0.057c-0.151,0-.3.014-0.452,0.028a1.09,1.09,0,0,0-.213.014C500.221,893.707,500.249,893.679,500.276,893.649Zm-2.849,9.211v0.008c-0.068.078-.141,0.153-0.2,0.233-0.032-.368-0.056-0.731-0.056-1.1a12.84,12.84,0,0,1,.08-1.4c0.013-.117.037-0.233,0.053-0.343,0.049-.35.1-0.7,0.18-1.037,0.031-.14.072-0.276,0.107-0.414,0.079-.307.166-0.612,0.268-0.913,0.052-.156.111-0.31,0.17-0.466,0.1-.27.216-0.536,0.337-0.8,0.045-.1.093-0.194,0.139-0.29l1.93-.275a3.507,3.507,0,0,1,2.969.989l3.441,3.441c-0.019.039-.033,0.081-0.051,0.116l-0.025.061c-0.022.054-.048,0.106-0.067,0.161h-4.865a5.846,5.846,0,0,0-.674.04c-0.078.009-.154,0.029-0.233,0.041-0.144.023-.289,0.043-0.43,0.077-0.087.021-.172,0.051-0.26,0.077-0.127.036-.255,0.068-0.379,0.116-0.09.033-.176,0.075-0.264,0.117-0.116.049-.233,0.093-0.35,0.15-0.09.045-.174,0.1-0.261,0.147-0.106.06-.215,0.117-0.317,0.182s-0.167.117-.251,0.181-0.2.137-.29,0.214-0.152.139-.233,0.208-0.18.16-.262,0.247S497.5,902.78,497.427,902.86Zm5.524,4.6v0.008c-0.043.055-.078,0.117-0.117,0.171-0.091.125-.184,0.248-0.265,0.38-0.043.069-.077,0.144-0.116,0.215-0.069.116-.141,0.245-0.2,0.372-0.038.081-.066,0.166-0.1,0.248-0.052.123-.1,0.245-0.148,0.371-0.03.088-.049,0.178-0.074,0.266-0.036.125-.076,0.249-0.1,0.377-0.019.094-.03,0.188-0.045,0.283-0.021.124-.044,0.249-0.057,0.376-0.01.1-.01,0.2-0.014,0.3,0,0.125-.015.248-0.013,0.372,0,0.1.014,0.2,0.021,0.307s0.008,0.211.022,0.316c-0.031-.027-0.061-0.056-0.091-0.083a12.958,12.958,0,0,1-1.05-1.02c-0.063-.067-0.126-0.136-0.188-0.205a13.031,13.031,0,0,1-1.843-2.7c-0.026-.049-0.049-0.1-0.074-0.151a12.73,12.73,0,0,1-.6-1.421c-0.011-.031-0.024-0.061-0.035-0.094l1.169-1.57a3.519,3.519,0,0,1,2.8-1.4H506.7c0.019,0.054.045,0.107,0.067,0.161l0.025,0.06c0.018,0.04.032,0.082,0.051,0.117l-3.441,3.44A6.2,6.2,0,0,0,502.951,907.455Zm7.936,7.333,0,0.008a12.087,12.087,0,0,1-1.291.024c-0.164,0-.328-0.012-0.49-0.024q-0.627-.043-1.246-0.148c-0.1-.018-0.208-0.027-0.309-0.047a12.75,12.75,0,0,1-1.517-.394c-0.1-.034-0.2-0.076-0.306-0.117q-0.584-.207-1.15-0.472c-0.082-.038-0.161-0.076-0.242-0.117l-0.273-1.934a3.516,3.516,0,0,1,.99-2.97l3.44-3.44c0.041,0.02.083,0.034,0.125,0.052l0.055,0.023c0.054,0.022.107,0.047,0.163,0.067v4.868a6.079,6.079,0,0,0,.04.674c0.009,0.079.029,0.155,0.041,0.233,0.023,0.144.043,0.287,0.077,0.428,0.021,0.09.052,0.177,0.078,0.265,0.036,0.126.069,0.252,0.117,0.376,0.032,0.09.075,0.176,0.116,0.266,0.049,0.117.095,0.233,0.151,0.35,0.044,0.09.1,0.174,0.147,0.261,0.059,0.106.116,0.216,0.182,0.319a2.837,2.837,0,0,0,.182.252c0.065,0.084.136,0.195,0.211,0.287s0.141,0.155.212,0.233,0.158,0.179.244,0.261,0.158,0.138.233,0.207,0.153,0.14.234,0.2C511.027,914.783,510.955,914.783,510.887,914.788Zm0.189-12.334a1.313,1.313,0,0,1-.143.212,1.145,1.145,0,0,1-.269.269,1.22,1.22,0,0,1-.213.143,1.169,1.169,0,0,1-.9,0,1.251,1.251,0,0,1-.212-0.143,1.113,1.113,0,0,1-.251-0.243,1.013,1.013,0,0,1-.161-1.137,1.249,1.249,0,0,1,.161-0.245v0a1.139,1.139,0,0,1,.251-0.244,1.245,1.245,0,0,1,.212-0.142,1.16,1.16,0,0,1,.9,0,1.215,1.215,0,0,1,.213.142,1.184,1.184,0,0,1,.269.269,1.279,1.279,0,0,1,.143.213A1.169,1.169,0,0,1,511.076,902.454Zm8.638,7.907,0,0.009a12.929,12.929,0,0,1-1,1.037c-0.071.066-.143,0.13-0.215,0.195a12.99,12.99,0,0,1-2.695,1.831l-0.155.075a12.508,12.508,0,0,1-1.419.595l-0.094.035-1.562-1.171a3.513,3.513,0,0,1-1.4-2.8V905.3c0.056-.02.108-0.046,0.163-0.068l0.056-.023c0.041-.018.083-0.032,0.124-0.052l3.44,3.441a5.874,5.874,0,0,0,.817.667l0.128,0.09a5.759,5.759,0,0,0,.886.467c0.053,0.023.106,0.044,0.159,0.065a5.925,5.925,0,0,0,.973.294c0.034,0.007.069,0.01,0.1,0.016a5.843,5.843,0,0,0,1.022.1h0.068a5.648,5.648,0,0,0,.7-0.045A1.211,1.211,0,0,1,519.714,910.361Zm3.036-6.947c-0.012.117-.037,0.233-0.053,0.35-0.048.35-.1,0.689-0.179,1.029-0.031.142-.072,0.281-0.108,0.421-0.08.3-.165,0.607-0.266,0.9-0.054.159-.117,0.315-0.173,0.467q-0.154.4-.335,0.793c-0.045.1-.093,0.194-0.14,0.291l-1.929.275a3.52,3.52,0,0,1-2.97-.989l-3.44-3.441c0.02-.041.034-0.083,0.051-0.123l0.024-.056c0.022-.055.047-0.108,0.067-0.164h4.868a5.845,5.845,0,0,0,.674-0.039c0.079-.01.155-0.03,0.233-0.041,0.144-.024.287-0.043,0.428-0.077,0.09-.021.177-0.053,0.265-0.079,0.126-.036.252-0.068,0.376-0.116,0.09-.033.176-0.076,0.266-0.117,0.117-.049.233-0.094,0.35-0.15,0.09-.045.174-0.1,0.261-0.147,0.106-.06.216-0.117,0.319-0.182s0.168-.117.252-0.182,0.195-.137.287-0.212,0.155-.141.233-0.212,0.179-.157.261-0.244,0.133-.154.2-0.233l0,0.013c0.068-.079.14-0.153,0.2-0.233,0.031,0.361.056,0.724,0.056,1.094A12.6,12.6,0,0,1,522.75,903.414Zm-38.417-27.081h2.334v2.334h-2.334v-2.334Zm49,49h2.334v2.334h-2.334v-2.334ZM483.167,902H485.5A24.527,24.527,0,0,1,510,877.5v-2.334A26.863,26.863,0,0,0,483.167,902Zm29.166-26.834h2.334V877.5h-2.334v-2.334Z" transform="translate(-455 -848)"/>
</svg>
