<svg xmlns="http://www.w3.org/2000/svg" width="14" height="14" viewBox="0 0 14 14">
  <metadata><?xpacket begin="﻿" id="W5M0MpCehiHzreSzNTczkc9d"?>
<x:xmpmeta xmlns:x="adobe:ns:meta/" x:xmptk="Adobe XMP Core 5.6-c142 79.160924, 2017/07/13-01:06:39        ">
   <rdf:RDF xmlns:rdf="http://www.w3.org/1999/02/22-rdf-syntax-ns#">
      <rdf:Description rdf:about=""/>
   </rdf:RDF>
</x:xmpmeta>
                                                                                                    
                                                                                                    
                                                                                                    
                                                                                                    
                                                                                                    
                                                                                                    
                                                                                                    
                                                                                                    
                                                                                                    
                                                                                                    
                                                                                                    
                                                                                                    
                                                                                                    
                                                                                                    
                                                                                                    
                                                                                                    
                                                                                                    
                                                                                                    
                                                                                                    
                                                                                                    
                           
<?xpacket end="w"?></metadata>
<defs>
    <style>
      .cls-1 {
        fill: #db001b;
        fill-rule: evenodd;
      }
    </style>
  </defs>
  <path id="иконка" class="cls-1" d="M834,16a7,7,0,1,0,7,7A7,7,0,0,0,834,16Zm0.5,10.892a0.824,0.824,0,0,1-.564.218,0.852,0.852,0,0,1-.578-0.215,0.751,0.751,0,0,1-.247-0.6,0.769,0.769,0,0,1,.239-0.575,0.805,0.805,0,0,1,.586-0.233,0.8,0.8,0,0,1,.809.809A0.757,0.757,0,0,1,834.5,26.892Zm2.028-5.026a2.482,2.482,0,0,1-.446.6q-0.257.253-.925,0.849a3.791,3.791,0,0,0-.3.3,1.251,1.251,0,0,0-.166.233,1.174,1.174,0,0,0-.084.212c-0.019.07-.049,0.194-0.089,0.372a0.6,0.6,0,0,1-.646.564,0.662,0.662,0,0,1-.475-0.184,0.724,0.724,0,0,1-.193-0.548,2.023,2.023,0,0,1,.142-0.79,1.97,1.97,0,0,1,.374-0.586,8.535,8.535,0,0,1,.63-0.6c0.231-.2.4-0.356,0.5-0.459a1.551,1.551,0,0,0,.26-0.345,0.829,0.829,0,0,0,.106-0.413,0.956,0.956,0,0,0-.323-0.733,1.179,1.179,0,0,0-.833-0.3,1.153,1.153,0,0,0-.88.3,2.4,2.4,0,0,0-.477.887,0.72,0.72,0,0,1-.7.613,0.691,0.691,0,0,1-.513-0.214,0.658,0.658,0,0,1-.209-0.464,1.963,1.963,0,0,1,.332-1.045,2.546,2.546,0,0,1,.966-0.876,3.037,3.037,0,0,1,1.482-.348,3.166,3.166,0,0,1,1.389.291,2.249,2.249,0,0,1,.931.79,1.936,1.936,0,0,1,.328,1.086A1.664,1.664,0,0,1,836.527,21.866Z" transform="translate(-827 -16)"/>
</svg>
