<svg xmlns="http://www.w3.org/2000/svg" width="12" height="16" viewBox="0 0 12 16">
  <metadata><?xpacket begin="﻿" id="W5M0MpCehiHzreSzNTczkc9d"?>
<x:xmpmeta xmlns:x="adobe:ns:meta/" x:xmptk="Adobe XMP Core 5.6-c142 79.160924, 2017/07/13-01:06:39        ">
   <rdf:RDF xmlns:rdf="http://www.w3.org/1999/02/22-rdf-syntax-ns#">
      <rdf:Description rdf:about=""/>
   </rdf:RDF>
</x:xmpmeta>
                                                                                                    
                                                                                                    
                                                                                                    
                                                                                                    
                                                                                                    
                                                                                                    
                                                                                                    
                                                                                                    
                                                                                                    
                                                                                                    
                                                                                                    
                                                                                                    
                                                                                                    
                                                                                                    
                                                                                                    
                                                                                                    
                                                                                                    
                                                                                                    
                                                                                                    
                                                                                                    
                           
<?xpacket end="w"?></metadata>
<defs>
    <style>
      .cls-1 {
        fill: #fff;
        fill-rule: evenodd;
      }
    </style>
  </defs>
  <path id="иконка" class="cls-1" d="M1492,28.249V21.907a1.772,1.772,0,0,0-1.79-1.751L1490,20V18c0.12-2.973-1.93-4-4-4s-4,.967-4,3v1a0.894,0.894,0,0,0,.77.641c0.29,0,.23-0.353.23-0.641V17c0-1.457,1.52-1.95,3-1.95a2.773,2.773,0,0,1,3,2.95v2h-7a2.108,2.108,0,0,0-2,1.907v6.342A1.772,1.772,0,0,0,1481.79,30h8.43A1.771,1.771,0,0,0,1492,28.249Zm-10.93,0V21.907A1.129,1.129,0,0,1,1482,21h8a1.129,1.129,0,0,1,.93.907v6.342a0.708,0.708,0,0,1-.71.7h-8.43A0.712,0.712,0,0,1,1481.07,28.249ZM1486,24c-0.34-.118-1.33-0.2-1.11.71A6.392,6.392,0,0,1,1485,26c0,0.291.7,0,1,0s1,0.288,1,0V24C1487,23.712,1486.28,24.1,1486,24Z" transform="translate(-1480 -14)"/>
</svg>
