<svg xmlns="http://www.w3.org/2000/svg" width="21" height="19" viewBox="0 0 21 19">
  <metadata><?xpacket begin="﻿" id="W5M0MpCehiHzreSzNTczkc9d"?>
<x:xmpmeta xmlns:x="adobe:ns:meta/" x:xmptk="Adobe XMP Core 5.6-c142 79.160924, 2017/07/13-01:06:39        ">
   <rdf:RDF xmlns:rdf="http://www.w3.org/1999/02/22-rdf-syntax-ns#">
      <rdf:Description rdf:about=""/>
   </rdf:RDF>
</x:xmpmeta>
                                                                                                    
                                                                                                    
                                                                                                    
                                                                                                    
                                                                                                    
                                                                                                    
                                                                                                    
                                                                                                    
                                                                                                    
                                                                                                    
                                                                                                    
                                                                                                    
                                                                                                    
                                                                                                    
                                                                                                    
                                                                                                    
                                                                                                    
                                                                                                    
                                                                                                    
                                                                                                    
                           
<?xpacket end="w"?></metadata>
<defs>
    <style>
      .cls-1 {
        fill: #91a7b3;
        fill-rule: evenodd;
      }
    </style>
  </defs>
  <path id="иконка" class="cls-1" d="M1354.4,93.553h-1.09a0.046,0.046,0,0,0-.02-0.026l-5.94-5.679a0.7,0.7,0,0,0-.96,0,0.631,0.631,0,0,0,0,.927l4.99,4.778h-11.76l4.99-4.778a0.631,0.631,0,0,0,0-.927,0.7,0.7,0,0,0-.96,0l-5.94,5.679a0.046,0.046,0,0,0-.02.026h-1.09a1.569,1.569,0,0,0-1.6,1.529v0.873a1.559,1.559,0,0,0,1.47,1.524l1.32,7.535a2.011,2.011,0,0,0,2.02,1.642h11.58a2.035,2.035,0,0,0,2.03-1.687l1.12-7.491a1.557,1.557,0,0,0,1.46-1.523V95.082A1.569,1.569,0,0,0,1354.4,93.553Zm0.23,2.4a0.223,0.223,0,0,1-.23.218h-6.85a0.656,0.656,0,1,0,0,1.31h5.61l-1.09,7.3a0.682,0.682,0,0,1-.68.563h-11.58a0.669,0.669,0,0,1-.67-0.548l-1.28-7.315h5.59a0.656,0.656,0,1,0,0-1.31h-6.85a0.223,0.223,0,0,1-.23-0.218V95.082a0.223,0.223,0,0,1,.23-0.219h17.8a0.223,0.223,0,0,1,.23.219v0.873Zm-13.24,2.839a0.665,0.665,0,0,0-.68.655v3.931a0.665,0.665,0,0,0,.68.655,0.674,0.674,0,0,0,.69-0.655V99.45A0.674,0.674,0,0,0,1341.39,98.795Zm4.11,0a0.665,0.665,0,0,0-.68.655v3.931a0.68,0.68,0,0,0,1.36,0V99.45A0.665,0.665,0,0,0,1345.5,98.795Zm4.11,0a0.674,0.674,0,0,0-.69.655v3.931a0.674,0.674,0,0,0,.69.655,0.665,0.665,0,0,0,.68-0.655V99.45A0.665,0.665,0,0,0,1349.61,98.795Z" transform="translate(-1335 -87.656)"/>
</svg>
