<svg xmlns="http://www.w3.org/2000/svg" width="20" height="20.031" viewBox="0 0 20 20.031">
  <metadata><?xpacket begin="﻿" id="W5M0MpCehiHzreSzNTczkc9d"?>
<x:xmpmeta xmlns:x="adobe:ns:meta/" x:xmptk="Adobe XMP Core 5.6-c142 79.160924, 2017/07/13-01:06:39        ">
   <rdf:RDF xmlns:rdf="http://www.w3.org/1999/02/22-rdf-syntax-ns#">
      <rdf:Description rdf:about=""/>
   </rdf:RDF>
</x:xmpmeta>
                                                                                                    
                                                                                                    
                                                                                                    
                                                                                                    
                                                                                                    
                                                                                                    
                                                                                                    
                                                                                                    
                                                                                                    
                                                                                                    
                                                                                                    
                                                                                                    
                                                                                                    
                                                                                                    
                                                                                                    
                                                                                                    
                                                                                                    
                                                                                                    
                                                                                                    
                                                                                                    
                           
<?xpacket end="w"?></metadata>
<defs>
    <style>
      .cls-1 {
        fill: #c0cdd3;
        fill-rule: evenodd;
      }
    </style>
  </defs>
  <path id="иконка" class="cls-1" d="M650.949,95.224c1.348,1.359,2.909,2.657,3.526,2.035,0.884-.89,1.428-1.665,3.376-0.088s0.452,2.629-.4,3.492c-0.988,1-4.67.052-8.309-3.614s-4.575-7.377-3.587-8.372c0.857-.863,1.9-2.37,3.465-0.407s0.8,2.511-.087,3.4C648.312,92.293,649.6,93.865,650.949,95.224ZM665.187,85.9c0,2.706-2.751,4.9-6.143,4.9a7.7,7.7,0,0,1-.994-0.07,6,6,0,0,1-3.935,1.535,4.91,4.91,0,0,0,1.272-2.434A4.658,4.658,0,0,1,652.9,85.9c0-2.706,2.751-4.9,6.143-4.9S665.187,83.192,665.187,85.9Zm-9.983,0a0.96,0.96,0,1,0,.96-0.967A0.964,0.964,0,0,0,655.2,85.9Zm4.8,0a0.961,0.961,0,1,0-.96.967A0.964,0.964,0,0,0,660,85.9Zm2.879,0a0.96,0.96,0,1,0-.96.967A0.963,0.963,0,0,0,662.883,85.9Z" transform="translate(-645.188 -81)"/>
</svg>
