<svg xmlns="http://www.w3.org/2000/svg" width="14.032" height="14" viewBox="0 0 14.032 14">
  <metadata><?xpacket begin="﻿" id="W5M0MpCehiHzreSzNTczkc9d"?>
<x:xmpmeta xmlns:x="adobe:ns:meta/" x:xmptk="Adobe XMP Core 5.6-c142 79.160924, 2017/07/13-01:06:39        ">
   <rdf:RDF xmlns:rdf="http://www.w3.org/1999/02/22-rdf-syntax-ns#">
      <rdf:Description rdf:about=""/>
   </rdf:RDF>
</x:xmpmeta>
                                                                                                    
                                                                                                    
                                                                                                    
                                                                                                    
                                                                                                    
                                                                                                    
                                                                                                    
                                                                                                    
                                                                                                    
                                                                                                    
                                                                                                    
                                                                                                    
                                                                                                    
                                                                                                    
                                                                                                    
                                                                                                    
                                                                                                    
                                                                                                    
                                                                                                    
                                                                                                    
                           
<?xpacket end="w"?></metadata>
<defs>
    <style>
      .cls-1 {
        fill: #db001b;
        fill-rule: evenodd;
      }
    </style>
  </defs>
  <path id="иконка" class="cls-1" d="M746.643,22.893a0.457,0.457,0,0,0-.451-0.346,1.549,1.549,0,0,1-1.061-2.7,0.39,0.39,0,0,0,.043-0.529,6.918,6.918,0,0,0-1.112-1.122,0.39,0.39,0,0,0-.533.043,1.618,1.618,0,0,1-1.75.393,1.557,1.557,0,0,1-.947-1.523,0.39,0.39,0,0,0-.345-0.41,7,7,0,0,0-1.579,0,0.39,0.39,0,0,0-.347.4,1.561,1.561,0,0,1-.961,1.5,1.622,1.622,0,0,1-1.737-.4,0.39,0.39,0,0,0-.529-0.044A6.937,6.937,0,0,0,734.2,19.28a0.389,0.389,0,0,0,.042.533,1.554,1.554,0,0,1,.392,1.75,1.621,1.621,0,0,1-1.527.948,0.381,0.381,0,0,0-.4.345,7.032,7.032,0,0,0,0,1.6,0.464,0.464,0,0,0,.46.345,1.539,1.539,0,0,1,1.444.961,1.561,1.561,0,0,1-.393,1.735,0.389,0.389,0,0,0-.042.529,6.96,6.96,0,0,0,1.11,1.123,0.39,0.39,0,0,0,.534-0.042,1.615,1.615,0,0,1,1.749-.394,1.554,1.554,0,0,1,.949,1.523,0.39,0.39,0,0,0,.345.41,6.943,6.943,0,0,0,1.578,0,0.39,0.39,0,0,0,.347-0.4,1.56,1.56,0,0,1,.961-1.5,1.618,1.618,0,0,1,1.737.4,0.393,0.393,0,0,0,.53.044,6.989,6.989,0,0,0,1.135-1.122,0.39,0.39,0,0,0-.042-0.533,1.554,1.554,0,0,1-.393-1.75,1.57,1.57,0,0,1,1.435-.951l0.087,0a0.391,0.391,0,0,0,.411-0.344A7.031,7.031,0,0,0,746.643,22.893Zm-6.973,4.823a4.046,4.046,0,1,1,3.473-1.971l-1.771-1.771a2.481,2.481,0,0,0-2.938-3.36,0.281,0.281,0,0,0-.194.2,0.274,0.274,0,0,0,.078.268s0.874,0.881,1.167,1.173a0.176,0.176,0,0,1,.026.13l0,0.019a5.624,5.624,0,0,1-.134.856l-0.018.018-0.02.02a5.519,5.519,0,0,1-.869.135v0l-0.015,0H738.44a0.187,0.187,0,0,1-.135-0.057c-0.3-.3-1.145-1.138-1.145-1.138a0.284,0.284,0,0,0-.2-0.091,0.277,0.277,0,0,0-.261.211,2.482,2.482,0,0,0,3.362,2.933l1.79,1.79A4.026,4.026,0,0,1,739.67,27.716Z" transform="translate(-732.656 -16.688)"/>
</svg>
