<svg xmlns="http://www.w3.org/2000/svg" width="11" height="14" viewBox="0 0 11 14">
  <metadata><?xpacket begin="﻿" id="W5M0MpCehiHzreSzNTczkc9d"?>
<x:xmpmeta xmlns:x="adobe:ns:meta/" x:xmptk="Adobe XMP Core 5.6-c142 79.160924, 2017/07/13-01:06:39        ">
   <rdf:RDF xmlns:rdf="http://www.w3.org/1999/02/22-rdf-syntax-ns#">
      <rdf:Description rdf:about=""/>
   </rdf:RDF>
</x:xmpmeta>
                                                                                                    
                                                                                                    
                                                                                                    
                                                                                                    
                                                                                                    
                                                                                                    
                                                                                                    
                                                                                                    
                                                                                                    
                                                                                                    
                                                                                                    
                                                                                                    
                                                                                                    
                                                                                                    
                                                                                                    
                                                                                                    
                                                                                                    
                                                                                                    
                                                                                                    
                                                                                                    
                           
<?xpacket end="w"?></metadata>
<defs>
    <style>
      .cls-1 {
        fill: #db001b;
        fill-rule: evenodd;
      }
    </style>
  </defs>
  <path id="иконка" class="cls-1" d="M945.9,16.222a5.554,5.554,0,0,0-5.278,5.038,5.7,5.7,0,0,0,.073,1.6h0s0.009,0.06.037,0.175a5.693,5.693,0,0,0,.37,1.108,16.166,16.166,0,0,0,4.687,5.959,0.473,0.473,0,0,0,.611,0,16.131,16.131,0,0,0,4.69-5.962,5.441,5.441,0,0,0,.37-1.108c0.025-.112.037-0.175,0.037-0.175h0a5.7,5.7,0,0,0,.1-1.059A5.538,5.538,0,0,0,945.9,16.222Zm0.195,8.359a2.713,2.713,0,1,1,2.671-2.713A2.692,2.692,0,0,1,946.093,24.581Z" transform="translate(-940.594 -16.219)"/>
</svg>
