<svg xmlns="http://www.w3.org/2000/svg" width="16" height="16" viewBox="0 0 16 16">
  <metadata><?xpacket begin="﻿" id="W5M0MpCehiHzreSzNTczkc9d"?>
<x:xmpmeta xmlns:x="adobe:ns:meta/" x:xmptk="Adobe XMP Core 5.6-c142 79.160924, 2017/07/13-01:06:39        ">
   <rdf:RDF xmlns:rdf="http://www.w3.org/1999/02/22-rdf-syntax-ns#">
      <rdf:Description rdf:about=""/>
   </rdf:RDF>
</x:xmpmeta>
                                                                                                    
                                                                                                    
                                                                                                    
                                                                                                    
                                                                                                    
                                                                                                    
                                                                                                    
                                                                                                    
                                                                                                    
                                                                                                    
                                                                                                    
                                                                                                    
                                                                                                    
                                                                                                    
                                                                                                    
                                                                                                    
                                                                                                    
                                                                                                    
                                                                                                    
                                                                                                    
                           
<?xpacket end="w"?></metadata>
<defs>
    <style>
      .cls-1 {
        fill: #db001b;
        fill-rule: evenodd;
      }
    </style>
  </defs>
  <path id="иконка" class="cls-1" d="M1368.87,17.618a7.994,7.994,0,1,0-11.31,11.294,0.014,0.014,0,0,0,.01.015,1.469,1.469,0,0,0,.14.125c0.13,0.114.26,0.232,0.39,0.343,0.07,0.057.15,0.114,0.22,0.167,0.13,0.1.26,0.191,0.39,0.279,0.09,0.057.19,0.114,0.28,0.171,0.12,0.074.25,0.149,0.38,0.217,0.1,0.057.21,0.106,0.32,0.158s0.24,0.114.36,0.166,0.25,0.091.37,0.136,0.24,0.085.36,0.122,0.27,0.072.41,0.106c0.11,0.028.22,0.06,0.34,0.083,0.16,0.031.32,0.051,0.48,0.073,0.1,0.014.19,0.033,0.29,0.043,0.26,0.026.53,0.04,0.79,0.04s0.53-.014.8-0.04c0.1-.01.19-0.029,0.29-0.043,0.16-.022.32-0.042,0.48-0.073,0.11-.023.23-0.057,0.34-0.083,0.14-.034.28-0.065,0.41-0.106s0.24-.081.35-0.122,0.25-.086.37-0.136,0.24-.109.36-0.166,0.22-.1.33-0.158c0.13-.068.25-0.143,0.38-0.217,0.09-.057.18-0.109,0.27-0.171a4.383,4.383,0,0,0,.39-0.279l0.23-.167c0.13-.109.26-0.224,0.39-0.343,0.04-.043.1-0.081,0.14-0.125a0.014,0.014,0,0,0,.01-0.015A7.977,7.977,0,0,0,1368.87,17.618Zm-1.28,10.7c-0.1.091-.21,0.178-0.32,0.262-0.06.049-.13,0.1-0.19,0.145-0.11.075-.21,0.146-0.32,0.214-0.08.05-.16,0.1-0.24,0.144l-0.3.172c-0.09.047-.19,0.091-0.28,0.134s-0.2.09-.3,0.13-0.21.079-.31,0.114l-0.29.1c-0.12.034-.24,0.062-0.36,0.091-0.09.022-.18,0.046-0.27,0.065-0.14.026-.28,0.044-0.42,0.063-0.07.01-.15,0.025-0.23,0.033-0.22.021-.44,0.034-0.67,0.034s-0.44-.013-0.66-0.034c-0.08-.008-0.16-0.022-0.24-0.033-0.14-.019-0.28-0.037-0.41-0.063-0.1-.018-0.19-0.043-0.28-0.065-0.12-.028-0.24-0.057-0.35-0.091s-0.2-.064-0.29-0.1c-0.11-.037-0.21-0.074-0.32-0.114s-0.2-.085-0.3-0.13-0.18-.087-0.27-0.134c-0.11-.054-0.21-0.11-0.31-0.172-0.08-.047-0.16-0.095-0.24-0.144-0.1-.068-0.21-0.139-0.31-0.214-0.07-.047-0.13-0.1-0.2-0.145-0.1-.084-0.21-0.171-0.32-0.262a0.638,0.638,0,0,0-.07-0.064,4.6,4.6,0,0,1,3.12-4.282,3.389,3.389,0,0,0,2.91,0,4.572,4.572,0,0,1,3.11,4.282C1367.64,28.271,1367.61,28.293,1367.59,28.314Zm-6.49-8.577a2.284,2.284,0,1,1,3.98,2.24,2.212,2.212,0,0,1-.87.872s-0.01,0-.01,0a2.315,2.315,0,0,1-.48.2c-0.03.009-.05,0.02-0.08,0.027-0.06.015-.12,0.025-0.18,0.036a2.264,2.264,0,0,1-.34.034h-0.06a2.4,2.4,0,0,1-.34-0.034c-0.05-.01-0.11-0.021-0.17-0.036-0.03-.007-0.06-0.019-0.09-0.027a2.315,2.315,0,0,1-.48-0.2l-0.01,0A2.283,2.283,0,0,1,1361.1,19.737Zm7.58,7.38h0a5.768,5.768,0,0,0-3.06-3.938,3.428,3.428,0,1,0-5.05,0,5.715,5.715,0,0,0-3.06,3.938A6.855,6.855,0,1,1,1368.68,27.117Z" transform="translate(-1355.09 -15.156)"/>
</svg>
