<svg id="ховер" xmlns="http://www.w3.org/2000/svg" width="37" height="37" viewBox="0 0 37 37">
  <metadata><?xpacket begin="﻿" id="W5M0MpCehiHzreSzNTczkc9d"?>
<x:xmpmeta xmlns:x="adobe:ns:meta/" x:xmptk="Adobe XMP Core 5.6-c142 79.160924, 2017/07/13-01:06:39        ">
   <rdf:RDF xmlns:rdf="http://www.w3.org/1999/02/22-rdf-syntax-ns#">
      <rdf:Description rdf:about=""/>
   </rdf:RDF>
</x:xmpmeta>
                                                                                                    
                                                                                                    
                                                                                                    
                                                                                                    
                                                                                                    
                                                                                                    
                                                                                                    
                                                                                                    
                                                                                                    
                                                                                                    
                                                                                                    
                                                                                                    
                                                                                                    
                                                                                                    
                                                                                                    
                                                                                                    
                                                                                                    
                                                                                                    
                                                                                                    
                                                                                                    
                           
<?xpacket end="w"?></metadata>
<defs>
    <style>
      .cls-1 {
        fill: #323338;
        stroke: #f4d219;
        stroke-width: 2px;
      }

      .cls-2 {
        fill: #f4d219;
        fill-rule: evenodd;
      }
    </style>
  </defs>
  <rect id="фон" class="cls-1" x="1" y="1" width="35" height="35" rx="17.5" ry="17.5"/>
  <path id="vk" class="cls-2" d="M1041.46,2606.87a0.3,0.3,0,0,1,.01.26,0.652,0.652,0,0,1-.27.24,1.118,1.118,0,0,1-.53.09l-2.39.04a0.659,0.659,0,0,1-.27.03,0.78,0.78,0,0,1-.26-0.07,1.538,1.538,0,0,1-.52-0.19l-0.17-.09c-0.17-.13-0.39-0.31-0.64-0.54a7.967,7.967,0,0,1-.65-0.64,2.038,2.038,0,0,0-.58-0.48,0.683,0.683,0,0,0-.53-0.13,0.1,0.1,0,0,1-.07.04,0.5,0.5,0,0,1-.15.11l-0.21.27c-0.02.05-.04,0.12-0.07,0.2a0.917,0.917,0,0,0-.06.25,1.661,1.661,0,0,0-.09.63,0.755,0.755,0,0,1-.03.23,0.53,0.53,0,0,1-.08.15l-0.02.04a0.487,0.487,0,0,1-.21.14,2.342,2.342,0,0,1-.3.05h-1.08a3.9,3.9,0,0,1-1.34-.12,6.646,6.646,0,0,1-1.22-.44,8.669,8.669,0,0,1-.96-0.56c-0.28-.2-0.5-0.36-0.66-0.47l-0.24-.19-0.26-.27c-0.11-.13-0.34-0.39-0.68-0.77a13.872,13.872,0,0,1-1-1.24c-0.32-.44-0.71-1.03-1.15-1.77s-0.84-1.5-1.2-2.27a1.006,1.006,0,0,1-.08-0.22,0.134,0.134,0,0,1,.04-0.12l0.04-.06a0.855,0.855,0,0,1,.54-0.18h2.53a0.178,0.178,0,0,1,.17.14l0.15,0.06,0.04,0.04a0.471,0.471,0,0,1,.22.24,4.535,4.535,0,0,0,.41.87c0.17,0.29.3,0.52,0.4,0.67l0.15,0.27c0.18,0.31.35,0.59,0.53,0.84a3.732,3.732,0,0,0,.48.59c0.15,0.13.28,0.24,0.4,0.33a0.546,0.546,0,0,0,.55.08l0.04-.02a0.487,0.487,0,0,1,.1-0.2,1.633,1.633,0,0,0,.16-0.37,5.074,5.074,0,0,1,.06-0.68,3.667,3.667,0,0,0,0-1.05,4.839,4.839,0,0,0-.06-0.61c-0.07-.2-0.12-0.32-0.15-0.39l-0.07-.09a1.217,1.217,0,0,0-.79-0.35q-0.135-.015.03-0.18a1.935,1.935,0,0,1,.36-0.28,7.72,7.72,0,0,1,2.23-.19,7.084,7.084,0,0,1,1.24.09,1.23,1.23,0,0,1,.35.13,0.347,0.347,0,0,1,.15.2,0.981,0.981,0,0,1,.11.25,0.889,0.889,0,0,1,.04.38v0.46a2.555,2.555,0,0,0-.05.58v1.4a1.223,1.223,0,0,0,.06.35c0.03,0.12.07,0.23,0.09,0.32l0.22,0.2a0.414,0.414,0,0,0,.14.02,0.44,0.44,0,0,0,.25-0.08l0.36-.29a1.755,1.755,0,0,0,.49-0.56,6.1,6.1,0,0,0,.65-0.88,10.441,10.441,0,0,0,1.01-1.9l0.1-.15c0.05-.04.08-0.08,0.11-0.1l0.04-.04c0-.01.01-0.02,0.01-0.03a0.9,0.9,0,0,0,.12-0.03l2.88-.04a2.249,2.249,0,0,1,.56.03,0.46,0.46,0,0,1,.26.15l0.06,0.09c0.14,0.37-.32,1.19-1.4,2.46-0.12.17-.33,0.4-0.6,0.71a6.021,6.021,0,0,0-.81,1.08,0.594,0.594,0,0,0,.13.67l0.79,0.71a7.893,7.893,0,0,1,1.78,1.86,0.9,0.9,0,0,1,.09.1h0a0.6,0.6,0,0,0,.17.19h0Z" transform="translate(-1014 -2584)"/>
</svg>
